<svg width="767" height="312" viewBox="0 0 767 312" fill="none" xmlns="http://www.w3.org/2000/svg">
<path fill-rule="evenodd" clip-rule="evenodd" d="M0 15.7305L8.24438 116.245L21.0272 103.226L15.1825 24.9473C60.8532 10.3678 103.488 10.4304 149.171 24.9473L148.011 42.7319L40.4165 144.909L82.3666 161.623L125.544 142.725L128.338 98.1327L113.927 111.715L112.252 133.514L82.1267 146.635L65.0912 139.868L161.772 48.9063L164.345 15.7305C108.314 -5.19863 56.0142 -5.28836 0 15.7305Z" fill="#50C800"/>
<path fill-rule="evenodd" clip-rule="evenodd" d="M139.688 154.067L82.1466 177.402L24.7614 154.072L23.7744 140.469L130.751 35.9876C97.7798 28.0062 66.9829 27.9728 34.022 35.9897L36.4237 87.7868C41.7489 82.4909 44.4303 79.8429 49.8305 74.5449L48.5472 47.0344C66.4487 43.8126 83.7617 42.8527 101.262 44.6577L9.75 134.864L12.0474 163.676L82.1424 192.32L152.402 163.681L160.096 68.9234C153.999 74.4614 150.971 77.2304 144.955 82.7684L139.688 154.067Z" fill="#50C800"/>
<path fill-rule="evenodd" clip-rule="evenodd" d="M226.787 65.9983H267.815L224.562 128.16V139.282H285.735V126.059H242.729L285.981 63.897V52.7751H226.787V65.9983Z" fill="#104035"/>
<path fill-rule="evenodd" clip-rule="evenodd" d="M336.912 122.101C336.912 125.563 335.554 126.798 332.217 126.798H315.286C311.826 126.798 310.591 125.563 310.591 122.101V89.7242C310.591 86.2624 311.826 85.0271 315.286 85.0271H332.217C335.554 85.0271 336.912 86.2624 336.912 89.7242V122.101ZM334.688 72.5448H312.69C301.568 72.5448 296.379 77.7364 296.379 88.8582V122.967C296.379 134.089 301.568 139.28 312.69 139.28H334.688C345.81 139.28 351.001 134.089 351.001 122.967V88.8582C351.001 77.7364 345.81 72.5448 334.688 72.5448ZM376.473 82.6797V72.5448H362.263V139.28H376.473V91.2057C382.034 87.9944 386.977 86.0162 394.145 86.0162H401.313V72.5448H396.246C386.237 72.5448 381.416 76.8704 376.473 82.6797ZM424.66 82.6797V72.5448H410.448V139.28H424.66V91.2057C430.221 87.9944 435.165 86.0162 442.332 86.0162H449.5V72.5448H444.434C434.424 72.5448 429.604 76.8704 424.66 82.6797ZM498.563 122.101C498.563 125.563 497.203 126.798 493.866 126.798H476.937C473.476 126.798 472.24 125.563 472.24 122.101V89.7242C472.24 86.2624 473.476 85.0271 476.937 85.0271H493.866C497.203 85.0271 498.563 86.2624 498.563 89.7242V122.101ZM496.339 72.5448H474.342C463.22 72.5448 458.03 77.7364 458.03 88.8582V122.967C458.03 134.089 463.22 139.28 474.342 139.28H496.339C507.461 139.28 512.651 134.089 512.651 122.967V88.8582C512.651 77.7364 507.461 72.5448 496.339 72.5448ZM568.043 91.0826L544.687 86.0162C540.484 85.0271 538.878 83.7918 538.878 79.8376V70.6918C538.878 67.2321 540.113 65.9968 543.575 65.9968H565.324C568.786 65.9968 570.021 67.2321 570.021 70.6918V79.3431H584.48V70.0742C584.48 58.3346 578.919 52.7737 567.177 52.7737H541.35C529.609 52.7737 524.05 58.3346 524.05 70.0742V81.9389C524.05 93.6784 531.464 97.3864 541.845 99.7339L565.324 104.926C569.403 105.789 571.01 107.025 571.01 110.979V121.36C571.01 124.82 569.773 126.057 566.436 126.057H542.957C539.621 126.057 538.383 124.82 538.383 121.36V111.845H523.802V121.978C523.802 133.717 529.363 139.28 541.102 139.28H568.537C580.277 139.28 585.838 133.717 585.838 121.978V108.88C585.838 97.1381 578.547 93.4322 568.043 91.0826Z" fill="#104035"/>
<path fill-rule="evenodd" clip-rule="evenodd" d="M597.746 139.279H611.956V72.5459H597.746V139.279Z" fill="#104035"/>
<path fill-rule="evenodd" clip-rule="evenodd" d="M597.262 64.2697H612.461V49.9343H597.262V64.2697Z" fill="#104035"/>
<path fill-rule="evenodd" clip-rule="evenodd" d="M664.558 119.137C658.748 122.722 654.053 124.452 644.413 124.452C638.483 124.452 637.245 123.091 637.245 119.755V89.4774C637.245 86.1408 638.483 84.7824 644.413 84.7824C654.053 84.7824 658.748 86.6354 664.558 90.095V119.137ZM664.558 82.1866C659.368 76.2542 654.794 72.0517 642.066 72.0517C628.225 72.0517 623.035 77.2433 623.035 89.2312V120.126C623.035 131.991 628.225 137.18 642.066 137.18C654.794 137.18 659.368 133.101 664.558 127.046V142.865C664.558 146.201 663.199 147.562 659.863 147.562H631.19V159.055H662.456C673.578 159.055 678.77 153.863 678.77 142.741V72.5463H664.558V82.1866ZM726.894 71.9307C714.783 71.9307 710.209 76.1311 705.02 82.0635V72.5463H690.808V139.282H705.02V89.9719C710.829 86.5123 715.524 84.6572 724.545 84.6572C729.736 84.6572 731.095 86.0177 731.095 89.7257V139.282H745.184V88.6135C745.184 77.1202 739.992 71.9307 726.894 71.9307ZM760.064 74.7205C760.064 75.4571 759.534 75.9872 758.543 75.9872H756.588V73.3851H758.499C759.465 73.3851 760.064 73.8233 760.064 74.6746V74.7205ZM762.042 74.6058V74.5599C762.042 73.7774 761.79 73.1097 761.305 72.6276C760.684 72.0058 759.763 71.6594 758.568 71.6594H754.632V80.5194H756.588V77.6669H758.13L760.016 80.5194H762.295L760.133 77.3456C761.26 76.9303 762.042 76.0331 762.042 74.6058Z" fill="#104035"/>
<path fill-rule="evenodd" clip-rule="evenodd" d="M765.424 76.3316C765.424 80.4048 762.25 83.7413 758.037 83.7413C753.849 83.7413 750.696 80.4527 750.696 76.3775V76.3316C750.696 72.2584 753.872 68.9219 758.083 68.9219C762.273 68.9219 765.424 72.2125 765.424 76.2857V76.3316ZM758.085 67.5217C753.146 67.5217 749.25 71.5385 749.25 76.3316V76.3796C749.25 81.1747 753.096 85.1415 758.037 85.1415C762.976 85.1415 766.87 81.1267 766.87 76.3316V76.2836C766.87 71.4885 763.024 67.5217 758.085 67.5217Z" fill="#104035"/>
<path d="M35.5758 283.96C31.0958 283.96 27.2558 283.064 24.0558 281.272C20.8984 279.437 18.5091 276.92 16.8878 273.72C15.2664 270.477 14.4557 266.744 14.4557 262.52C14.4557 258.253 15.2024 254.477 16.6958 251.192C18.1891 247.907 20.4504 245.325 23.4798 243.448C26.5091 241.571 30.2851 240.632 34.8078 240.632C37.8371 240.632 40.4611 240.931 42.6798 241.528C44.9411 242.083 46.9038 242.979 48.5678 244.216V250.744H41.8478V246.648C39.9278 245.795 37.5811 245.368 34.8078 245.368C30.4558 245.368 27.0638 246.883 24.6318 249.912C22.2424 252.941 21.0478 257.144 21.0478 262.52C21.0478 267.768 22.3491 271.864 24.9518 274.808C27.5971 277.752 31.2238 279.224 35.8318 279.224C37.8798 279.224 39.6931 279.032 41.2718 278.648C42.8931 278.264 44.4504 277.603 45.9438 276.664L48.4398 280.632C46.5624 281.869 44.6211 282.723 42.6158 283.192C40.6531 283.704 38.3064 283.96 35.5758 283.96ZM52.7682 278.264H54.3683C55.2216 278.264 55.8189 278.093 56.1603 277.752C56.5443 277.368 56.7363 276.749 56.7363 275.896V259.384C56.7363 258.573 56.5656 257.976 56.2243 257.592C55.8829 257.208 55.3069 257.016 54.4963 257.016H53.1523V252.28H61.9843L62.8803 255.8C63.7336 254.477 64.8216 253.56 66.1443 253.048C67.5096 252.536 69.1096 252.28 70.9443 252.28H73.8883V257.016H70.3043C67.8723 257.016 66.1443 257.571 65.1203 258.68C64.0963 259.747 63.5843 261.411 63.5843 263.672V275.896C63.5843 276.749 63.7549 277.368 64.0963 277.752C64.4376 278.093 65.0136 278.264 65.8243 278.264H67.4243V283H52.7682V278.264ZM80.8478 241.528H88.0798V247.416H80.8478V241.528ZM76.8158 278.264H78.6718C79.5251 278.264 80.1224 278.072 80.4638 277.688C80.8478 277.304 81.0398 276.685 81.0398 275.832V259.384C81.0398 258.573 80.8478 257.997 80.4638 257.656C80.1224 257.272 79.5251 257.08 78.6718 257.08H76.8158V252.28H87.8878V275.896C87.8878 276.707 88.0798 277.304 88.4638 277.688C88.8478 278.072 89.4451 278.264 90.2558 278.264H92.1118V283H76.8158V278.264ZM112.154 283.96C109.082 283.96 106.287 283.341 103.77 282.104C101.295 280.867 99.3324 279.032 97.8818 276.6C96.4311 274.168 95.7057 271.267 95.7057 267.896C95.7057 262.52 97.1351 258.424 99.9938 255.608C102.895 252.749 106.884 251.32 111.962 251.32C114.735 251.32 117.06 251.619 118.938 252.216C120.815 252.813 122.628 253.773 124.378 255.096V261.24H118.426V257.72C117.444 257.165 116.506 256.781 115.61 256.568C114.714 256.355 113.498 256.248 111.962 256.248C109.103 256.248 106.778 257.208 104.986 259.128C103.236 261.005 102.362 263.928 102.362 267.896C102.362 271.651 103.364 274.445 105.37 276.28C107.418 278.072 110.02 278.968 113.178 278.968C115.14 278.968 116.804 278.797 118.17 278.456C119.578 278.115 120.9 277.539 122.138 276.728L124.506 280.632C122.714 281.869 120.879 282.723 119.002 283.192C117.167 283.704 114.884 283.96 112.154 283.96ZM127.081 278.456H128.809C129.662 278.456 130.238 278.307 130.537 278.008C130.878 277.667 131.049 277.091 131.049 276.28V247.224C131.049 246.413 130.899 245.859 130.601 245.56C130.302 245.219 129.747 245.048 128.937 245.048H127.465V240.632H141.225V245.048H139.433C138.665 245.048 138.131 245.219 137.833 245.56C137.534 245.859 137.385 246.413 137.385 247.224V266.04L147.753 256.76H144.617V252.28H159.209V256.76H156.265C155.582 256.76 155.07 256.845 154.729 257.016C154.387 257.187 153.918 257.528 153.321 258.04L146.985 263.608L154.729 276.728C155.155 277.411 155.561 277.88 155.945 278.136C156.371 278.349 157.011 278.456 157.865 278.456H160.553V283H151.977L142.505 267.32L137.385 271.864V276.28C137.385 277.091 137.534 277.667 137.833 278.008C138.174 278.307 138.771 278.456 139.625 278.456H141.609V283H127.081V278.456ZM177.332 283.96C172.468 283.96 168.564 282.616 165.62 279.928C162.719 277.197 161.268 273.229 161.268 268.024C161.268 262.477 162.612 258.317 165.3 255.544C168.031 252.728 171.892 251.32 176.884 251.32C181.706 251.32 185.354 252.685 187.828 255.416C190.303 258.147 191.54 261.837 191.54 266.488V269.432H168.052C168.052 272.888 168.884 275.448 170.548 277.112C172.255 278.733 174.538 279.544 177.396 279.544C179.018 279.544 180.383 279.437 181.492 279.224C182.602 278.968 183.604 278.563 184.5 278.008V275.704H190.452V280.184C188.66 281.464 186.719 282.403 184.628 283C182.58 283.64 180.148 283.96 177.332 283.96ZM184.948 265.272C184.948 259.043 182.239 255.928 176.82 255.928C173.962 255.928 171.786 256.76 170.292 258.424C168.799 260.088 168.052 262.371 168.052 265.272H184.948ZM209.183 283.96C205.642 283.96 202.975 283.085 201.183 281.336C199.391 279.587 198.495 277.027 198.495 273.656V256.888H193.503V252.28H198.495V245.368L205.279 243.192V252.28H214.495V256.888H205.279V274.104C205.279 275.981 205.621 277.325 206.303 278.136C207.029 278.947 208.117 279.352 209.567 279.352C211.445 279.352 212.874 278.947 213.855 278.136V275.384H219.679V280.248C218.271 281.443 216.735 282.36 215.071 283C213.407 283.64 211.445 283.96 209.183 283.96ZM252.843 278.264H254.571C255.509 278.264 256.149 278.093 256.491 277.752C256.875 277.368 257.067 276.771 257.067 275.96V246.392H251.179C250.325 246.392 249.707 246.584 249.323 246.968C248.939 247.309 248.747 247.885 248.747 248.696V250.744H243.691V241.656H277.163V250.744H272.107V248.696C272.107 247.843 271.915 247.245 271.531 246.904C271.189 246.563 270.571 246.392 269.675 246.392H263.851V275.96C263.851 276.771 264.021 277.368 264.363 277.752C264.747 278.093 265.408 278.264 266.347 278.264H268.075V283H252.843V278.264ZM289.137 283.96C283.932 283.96 280.007 282.531 277.361 279.672C274.716 276.813 273.393 272.824 273.393 267.704C273.393 262.541 274.695 258.531 277.297 255.672C279.943 252.771 283.889 251.32 289.137 251.32C294.385 251.32 298.311 252.771 300.913 255.672C303.559 258.531 304.881 262.541 304.881 267.704C304.881 272.824 303.559 276.813 300.913 279.672C298.268 282.531 294.343 283.96 289.137 283.96ZM289.137 279.16C292.209 279.16 294.492 278.221 295.985 276.344C297.479 274.467 298.225 271.587 298.225 267.704C298.225 263.779 297.479 260.877 295.985 259C294.492 257.08 292.209 256.12 289.137 256.12C286.065 256.12 283.783 257.08 282.289 259C280.839 260.877 280.113 263.779 280.113 267.704C280.113 271.587 280.839 274.467 282.289 276.344C283.783 278.221 286.065 279.16 289.137 279.16ZM320.975 283.96C317.476 283.96 314.831 283.043 313.039 281.208C311.247 279.373 310.351 276.749 310.351 273.336V259.384C310.351 258.573 310.159 257.976 309.775 257.592C309.433 257.208 308.857 257.016 308.047 257.016H306.191V252.28H317.199V273.272C317.199 277.411 319.204 279.48 323.215 279.48C325.391 279.48 327.14 278.84 328.463 277.56C329.785 276.28 330.447 274.445 330.447 272.056V259.384C330.447 258.573 330.276 257.976 329.935 257.592C329.636 257.208 329.103 257.016 328.335 257.016H326.543V252.28H337.231V275.896C337.231 276.707 337.423 277.304 337.807 277.688C338.191 278.029 338.788 278.2 339.599 278.2H340.879V283H332.751L332.367 278.84C331.001 280.632 329.401 281.933 327.567 282.744C325.775 283.555 323.577 283.96 320.975 283.96ZM344.456 278.264H346.056C346.909 278.264 347.506 278.093 347.848 277.752C348.232 277.368 348.424 276.749 348.424 275.896V259.384C348.424 258.573 348.253 257.976 347.912 257.592C347.57 257.208 346.994 257.016 346.184 257.016H344.84V252.28H353.672L354.568 255.8C355.421 254.477 356.509 253.56 357.832 253.048C359.197 252.536 360.797 252.28 362.632 252.28H365.576V257.016H361.992C359.56 257.016 357.832 257.571 356.808 258.68C355.784 259.747 355.272 261.411 355.272 263.672V275.896C355.272 276.749 355.442 277.368 355.784 277.752C356.125 278.093 356.701 278.264 357.512 278.264H359.112V283H344.456V278.264ZM369.143 278.264H370.743C371.597 278.264 372.194 278.093 372.535 277.752C372.919 277.368 373.111 276.749 373.111 275.896V259.448C373.111 258.595 372.941 257.997 372.599 257.656C372.258 257.272 371.661 257.08 370.807 257.08H369.463V252.28H377.655L378.039 256.568C379.49 254.733 381.133 253.411 382.967 252.6C384.845 251.747 387.106 251.32 389.751 251.32C396.578 251.32 399.991 254.861 399.991 261.944V275.896C399.991 276.749 400.162 277.368 400.503 277.752C400.887 278.093 401.506 278.264 402.359 278.264H404.151V283H393.143V262.008C393.143 259.875 392.695 258.339 391.799 257.4C390.903 256.419 389.453 255.928 387.447 255.928C385.271 255.928 383.479 256.547 382.071 257.784C380.663 259.021 379.959 260.749 379.959 262.968V275.896C379.959 276.749 380.109 277.368 380.407 277.752C380.749 278.093 381.325 278.264 382.135 278.264H383.799V283H369.143V278.264ZM423.77 283.96C418.906 283.96 415.002 282.616 412.058 279.928C409.156 277.197 407.706 273.229 407.706 268.024C407.706 262.477 409.05 258.317 411.738 255.544C414.468 252.728 418.33 251.32 423.322 251.32C428.143 251.32 431.791 252.685 434.266 255.416C436.74 258.147 437.978 261.837 437.978 266.488V269.432H414.49C414.49 272.888 415.322 275.448 416.986 277.112C418.692 278.733 420.975 279.544 423.834 279.544C425.455 279.544 426.82 279.437 427.93 279.224C429.039 278.968 430.042 278.563 430.938 278.008V275.704H436.89V280.184C435.098 281.464 433.156 282.403 431.066 283C429.018 283.64 426.586 283.96 423.77 283.96ZM431.386 265.272C431.386 259.043 428.676 255.928 423.258 255.928C420.399 255.928 418.223 256.76 416.73 258.424C415.236 260.088 414.49 262.371 414.49 265.272H431.386ZM442.206 278.264H443.806C444.659 278.264 445.256 278.093 445.598 277.752C445.982 277.368 446.174 276.749 446.174 275.896V259.384C446.174 258.573 445.982 257.997 445.598 257.656C445.256 257.272 444.659 257.08 443.806 257.08H442.526V252.28H450.526L450.974 256.632C452.126 254.84 453.555 253.517 455.262 252.664C457.011 251.768 459.123 251.32 461.598 251.32C463.475 251.32 465.096 251.747 466.462 252.6C467.827 253.453 468.851 254.669 469.534 256.248C470.6 254.541 471.902 253.304 473.438 252.536C475.016 251.725 476.979 251.32 479.326 251.32C482.824 251.32 485.342 252.195 486.878 253.944C488.456 255.693 489.246 258.317 489.246 261.816V275.896C489.246 276.707 489.438 277.304 489.822 277.688C490.206 278.072 490.803 278.264 491.614 278.264H493.406V283H482.526V261.816C482.526 259.683 482.12 258.168 481.31 257.272C480.499 256.376 479.134 255.928 477.214 255.928C475.251 255.928 473.694 256.483 472.542 257.592C471.432 258.701 470.878 260.323 470.878 262.456V275.896C470.878 276.749 471.027 277.368 471.326 277.752C471.667 278.093 472.243 278.264 473.054 278.264H474.782V283H464.542V262.008C464.542 259.917 464.136 258.381 463.326 257.4C462.515 256.419 461.235 255.928 459.486 255.928C457.352 255.928 455.71 256.525 454.558 257.72C453.406 258.915 452.83 260.664 452.83 262.968V275.896C452.83 276.749 452.979 277.368 453.278 277.752C453.619 278.093 454.195 278.264 455.006 278.264H456.734V283H442.206V278.264ZM513.082 283.96C508.218 283.96 504.314 282.616 501.37 279.928C498.469 277.197 497.018 273.229 497.018 268.024C497.018 262.477 498.362 258.317 501.05 255.544C503.781 252.728 507.642 251.32 512.634 251.32C517.456 251.32 521.104 252.685 523.578 255.416C526.053 258.147 527.29 261.837 527.29 266.488V269.432H503.802C503.802 272.888 504.634 275.448 506.298 277.112C508.005 278.733 510.288 279.544 513.146 279.544C514.768 279.544 516.133 279.437 517.242 279.224C518.352 278.968 519.354 278.563 520.25 278.008V275.704H526.202V280.184C524.41 281.464 522.469 282.403 520.378 283C518.33 283.64 515.898 283.96 513.082 283.96ZM520.698 265.272C520.698 259.043 517.989 255.928 512.57 255.928C509.712 255.928 507.536 256.76 506.042 258.424C504.549 260.088 503.802 262.371 503.802 265.272H520.698ZM531.518 278.264H533.118C533.972 278.264 534.569 278.093 534.91 277.752C535.294 277.368 535.486 276.749 535.486 275.896V259.448C535.486 258.595 535.316 257.997 534.974 257.656C534.633 257.272 534.036 257.08 533.182 257.08H531.838V252.28H540.03L540.414 256.568C541.865 254.733 543.508 253.411 545.342 252.6C547.22 251.747 549.481 251.32 552.126 251.32C558.953 251.32 562.366 254.861 562.366 261.944V275.896C562.366 276.749 562.537 277.368 562.878 277.752C563.262 278.093 563.881 278.264 564.734 278.264H566.526V283H555.518V262.008C555.518 259.875 555.07 258.339 554.174 257.4C553.278 256.419 551.828 255.928 549.822 255.928C547.646 255.928 545.854 256.547 544.446 257.784C543.038 259.021 542.334 260.749 542.334 262.968V275.896C542.334 276.749 542.484 277.368 542.782 277.752C543.124 278.093 543.7 278.264 544.51 278.264H546.174V283H531.518V278.264ZM582.871 283.96C579.329 283.96 576.663 283.085 574.871 281.336C573.079 279.587 572.183 277.027 572.183 273.656V256.888H567.191V252.28H572.183V245.368L578.967 243.192V252.28H588.183V256.888H578.967V274.104C578.967 275.981 579.308 277.325 579.991 278.136C580.716 278.947 581.804 279.352 583.255 279.352C585.132 279.352 586.561 278.947 587.543 278.136V275.384H593.367V280.248C591.959 281.443 590.423 282.36 588.759 283C587.095 283.64 585.132 283.96 582.871 283.96ZM618.658 279.608C618.658 275.725 619.832 272.397 622.178 269.624C624.525 266.851 627.938 264.376 632.418 262.2C635.576 260.664 637.752 259.192 638.946 257.784C640.184 256.333 640.802 254.328 640.802 251.768C640.802 249.592 640.098 247.992 638.69 246.968C637.325 245.901 635.384 245.368 632.866 245.368C630.008 245.368 627.554 245.88 625.506 246.904V250.68H618.85V244.664C620.642 243.469 622.776 242.509 625.25 241.784C627.725 241.016 630.242 240.632 632.802 240.632C637.24 240.632 640.781 241.571 643.426 243.448C646.114 245.283 647.458 248.056 647.458 251.768C647.458 254.029 647.032 255.992 646.178 257.656C645.368 259.32 644.045 260.856 642.21 262.264C640.418 263.629 637.944 265.08 634.786 266.616C631.714 268.109 629.389 269.773 627.81 271.608C626.274 273.443 625.506 275.683 625.506 278.328H647.01V283H618.658V279.608ZM670.059 283.96C664.043 283.96 659.584 282.168 656.683 278.584C653.781 274.957 652.331 269.517 652.331 262.264C652.331 255.053 653.781 249.656 656.683 246.072C659.584 242.488 664.043 240.696 670.059 240.696C676.117 240.696 680.597 242.488 683.499 246.072C686.4 249.656 687.851 255.053 687.851 262.264C687.851 269.517 686.379 274.957 683.435 278.584C680.533 282.168 676.075 283.96 670.059 283.96ZM670.059 279.224C673.643 279.224 676.395 277.901 678.315 275.256C680.235 272.568 681.195 268.237 681.195 262.264C681.195 256.291 680.235 252.003 678.315 249.4C676.395 246.755 673.643 245.432 670.059 245.432C666.475 245.432 663.723 246.755 661.803 249.4C659.925 252.003 658.987 256.291 658.987 262.264C658.987 268.237 659.925 272.568 661.803 275.256C663.723 277.901 666.475 279.224 670.059 279.224ZM692.721 279.608C692.721 275.725 693.894 272.397 696.241 269.624C698.587 266.851 702.001 264.376 706.481 262.2C709.638 260.664 711.814 259.192 713.009 257.784C714.246 256.333 714.865 254.328 714.865 251.768C714.865 249.592 714.161 247.992 712.753 246.968C711.387 245.901 709.446 245.368 706.929 245.368C704.07 245.368 701.617 245.88 699.569 246.904V250.68H692.913V244.664C694.705 243.469 696.838 242.509 699.313 241.784C701.787 241.016 704.305 240.632 706.865 240.632C711.302 240.632 714.843 241.571 717.489 243.448C720.177 245.283 721.521 248.056 721.521 251.768C721.521 254.029 721.094 255.992 720.241 257.656C719.43 259.32 718.107 260.856 716.273 262.264C714.481 263.629 712.006 265.08 708.849 266.616C705.777 268.109 703.451 269.773 701.873 271.608C700.337 273.443 699.569 275.683 699.569 278.328H721.073V283H692.721V279.608ZM741.561 283.96C738.66 283.96 735.951 283.555 733.433 282.744C730.959 281.933 728.825 280.76 727.033 279.224V273.208H733.753V277.048C736.057 278.499 738.724 279.224 741.753 279.224C744.783 279.224 746.959 278.584 748.281 277.304C749.647 276.024 750.329 273.848 750.329 270.776C750.329 266.083 747.705 263.736 742.457 263.736H737.337V259H742.649C747.471 259 749.881 256.568 749.881 251.704C749.881 249.571 749.177 247.992 747.769 246.968C746.361 245.901 744.42 245.368 741.945 245.368C739.215 245.368 736.761 245.859 734.585 246.84V250.68H727.865V244.728C729.572 243.491 731.684 242.509 734.201 241.784C736.719 241.016 739.279 240.632 741.881 240.632C746.233 240.632 749.753 241.549 752.441 243.384C755.172 245.176 756.537 247.885 756.537 251.512C756.537 255.821 754.681 259.085 750.969 261.304C754.937 263.139 756.921 266.232 756.921 270.584C756.921 275.235 755.663 278.627 753.145 280.76C750.671 282.893 746.809 283.96 741.561 283.96Z" fill="#104035"/>
</svg>
